Coordinates
version=1
nRows=29
nColumns=22
inDegrees=yes

Units are S.I. units (second, meters, Newtons, ...)
If the header above contains a line with 'inDegrees', this indicates whether rotational values are in degrees (yes) or radians (no).

endheader
time	pelvis_tilt	pelvis_list	pelvis_rotation	pelvis_tx	pelvis_ty	pelvis_tz	hip_flexion_r	hip_adduction_r	hip_rotation_r	knee_angle_r	ankle_angle_r	subtalar_angle_r	hip_flexion_l	hip_adduction_l	hip_rotation_l	knee_angle_l	ankle_angle_l	subtalar_angle_l	lumbar_extension	lumbar_bending	lumbar_rotation
      0.01000000	     -4.91184878	     -2.79520690	      1.50602153	      0.09516904	      0.95631713	      1.18144934	      8.24390272	      2.15562568	     -3.85915334	    -12.19188763	     10.01911064	     -0.64014826	      6.33171112	     -5.20695220	     -7.96474077	    -11.55773081	      9.22158297	     -4.26104315	     -2.30376235	     -0.10703749	     -2.47472980
      0.02000000	     -4.92767988	     -2.79719951	      1.50006954	      0.09533484	      0.95629551	      1.18139343	      8.24627330	      2.15475512	     -3.85967207	    -12.18521148	     10.01995739	     -0.63953957	      6.33324058	     -5.20473940	     -7.96631865	    -11.55385406	      9.22179846	     -4.26210083	     -2.31653778	     -0.10560659	     -2.47855264
      0.03000000	     -4.95964494	     -2.79900389	      1.49179078	      0.09556452	      0.95625568	      1.18131909	      8.24940840	      2.15302242	     -3.85113725	    -12.15625474	     10.02261597	     -0.63539044	      6.33643125	     -5.19966947	     -7.98128484	    -11.52749664	      9.22569382	     -4.27026260	     -2.30555204	     -0.10175458	     -2.49678515
      0.04000000	     -4.97982161	     -2.80190110	      1.48549976	      0.09575828	      0.95623317	      1.18124494	      8.25420610	      2.15193931	     -3.85093127	    -12.14858595	     10.02332102	     -0.63486196	      6.33995994	     -5.19703357	     -7.98260091	    -11.52181456	      9.22658322	     -4.27135119	     -2.32251093	     -0.10009897	     -2.49712226
      0.05000000	     -5.02609865	     -2.80523964	      1.46536243	      0.09601127	      0.95617408	      1.18116871	      8.27151930	      2.15199095	     -3.83171535	    -12.11783062	     10.02482209	     -0.62931505	      6.34900471	     -5.19186351	     -7.99982936	    -11.48496223	      9.23783689	     -4.28195828	     -2.29774240	     -0.09415480	     -2.48335872
      0.06000000	     -5.04700967	     -2.80859622	      1.45774696	      0.09620185	      0.95615013	      1.18108687	      8.27895276	      2.15095157	     -3.83033958	    -12.11175367	     10.02526667	     -0.62881600	      6.35391703	     -5.18906188	     -8.00130653	    -11.48033537	      9.23854635	     -4.28280260	     -2.31835671	     -0.09203727	     -2.48116517
      0.07000000	     -5.12015618	     -2.81261299	      1.39860350	      0.09638262	      0.95604966	      1.18107679	      8.35684094	      2.15830025	     -3.73713020	    -12.12713644	     10.01711530	     -0.61376537	      6.40184653	     -5.19103786	     -8.05883403	    -11.46678368	      9.24672287	     -4.30659904	     -2.27308271	     -0.08938157	     -2.40938264
      0.08000000	     -5.15445371	     -2.81662711	      1.38272550	      0.09658071	      0.95600779	      1.18100425	      8.37646533	      2.15815828	     -3.73929721	    -12.11585942	     10.02345388	     -0.61170440	      6.41911776	     -5.18926715	     -8.06945433	    -11.46213024	      9.25080836	     -4.31274573	     -2.27357172	     -0.08856649	     -2.37662986
      0.09000000	     -5.17420158	     -2.81968301	      1.37782570	      0.09675580	      0.95598634	      1.18090339	      8.38382202	      2.15519409	     -3.73862097	    -12.11034342	     10.02397168	     -0.61159800	      6.42455539	     -5.18437974	     -8.07113169	    -11.45682567	      9.25193337	     -4.31323629	     -2.29537275	     -0.08170431	     -2.37237316
      0.10000000	     -5.23180434	     -2.82763997	      1.32245598	      0.09690635	      0.95590875	      1.18088680	      8.45436286	      2.16531841	     -3.66782706	    -12.13813032	     10.01474458	     -0.60546884	      6.45915463	     -5.19042567	     -8.12309728	    -11.44447441	      9.27091427	     -4.32816300	     -2.27029142	     -0.07411055	     -2.28112358
      0.11000000	     -5.27323663	     -2.83063057	      1.29571259	      0.09703885	      0.95585451	      1.18082794	      8.49938487	      2.16539101	     -3.64278248	    -12.15090492	     10.01735765	     -0.60400203	      6.49319820	     -5.18931234	     -8.15185242	    -11.45078341	      9.27515220	     -4.33483785	     -2.26653822	     -0.07248055	     -2.21931973
      0.12000000	     -5.29424154	     -2.83554504	      1.28973334	      0.09717176	      0.95583249	      1.18073273	      8.51345474	      2.16441955	     -3.64258930	    -12.14960480	     10.01694519	     -0.60405401	      6.50597336	     -5.18666060	     -8.15087541	    -11.45089946	      9.27641967	     -4.33656410	     -2.28478009	     -0.06780869	     -2.16817444
      0.13000000	     -5.33356829	     -2.84124079	      1.24339274	      0.09726983	      0.95578082	      1.18070297	      8.57220949	      2.17038597	     -3.59238282	    -12.18528261	     10.00963887	     -0.60471050	      6.52881388	     -5.19002890	     -8.20251988	    -11.44206556	      9.28361440	     -4.35015278	     -2.28238802	     -0.06227257	     -2.08009080
      0.14000000	     -5.35091474	     -2.84531641	      1.23683140	      0.09736159	      0.95576266	      1.18061239	      8.58723386	      2.16902759	     -3.59031149	    -12.18783807	     10.00936720	     -0.60617319	      6.54579206	     -5.18741963	     -8.20144489	    -11.45214537	      9.27861967	     -4.35362311	     -2.30395896	     -0.06131161	     -2.01005061
      0.15000000	     -5.38619456	     -2.84885588	      1.18465251	      0.09741799	      0.95571284	      1.18057720	      8.65184790	      2.17215914	     -3.52854328	    -12.23713097	     10.00049966	     -0.61322013	      6.56838395	     -5.18902350	     -8.26791147	    -11.44657294	      9.27698761	     -4.37901460	     -2.30392234	     -0.05835239	     -1.90014004
      0.16000000	     -5.41016513	     -2.85081424	      1.15586188	      0.09745670	      0.95568000	      1.18051114	      8.69348126	      2.17117837	     -3.49241935	    -12.26699884	      9.99656693	     -0.62237160	      6.59445714	     -5.18696392	     -8.29932747	    -11.46065689	      9.26959292	     -4.40220942	     -2.31634119	     -0.06111477	     -1.79824642
      0.17000000	     -5.42789488	     -2.85511139	      1.12993344	      0.09748207	      0.95565690	      1.18043306	      8.72956716	      2.17154147	     -3.46622727	    -12.29728730	      9.98988966	     -0.63029875	      6.61485585	     -5.18665879	     -8.32761088	    -11.47348391	      9.26630607	     -4.42464130	     -2.33323231	     -0.06365987	     -1.69412060
      0.18000000	     -5.43499032	     -2.86026777	      1.12214320	      0.09749793	      0.95565376	      1.18032408	      8.74289951	      2.17047952	     -3.46694000	    -12.30661021	      9.98635468	     -0.63229026	      6.63184455	     -5.18455901	     -8.32371795	    -11.49469979	      9.26223303	     -4.43182489	     -2.36084057	     -0.06741782	     -1.60502502
      0.19000000	     -5.44510390	     -2.86730653	      1.08874122	      0.09749301	      0.95564165	      1.18024014	      8.78394224	      2.17410500	     -3.43454284	    -12.35675210	      9.97510258	     -0.63350829	      6.64493321	     -5.18793863	     -8.37174081	    -11.50727109	      9.27000678	     -4.45728376	     -2.38317994	     -0.06827019	     -1.47997446
      0.20000000	     -5.44745401	     -2.87280324	      1.09271385	      0.09749047	      0.95564709	      1.18010135	      8.78752173	      2.17139910	     -3.44116044	    -12.35760966	      9.97341102	     -0.63267756	      6.66455447	     -5.18488157	     -8.35933533	    -11.53510807	      9.26566594	     -4.46154745	     -2.41097893	     -0.07616791	     -1.38357664
      0.21000000	     -5.44678996	     -2.88064422	      1.08488929	      0.09745525	      0.95565908	      1.17997072	      8.80037021	      2.17177070	     -3.44596212	    -12.37447085	      9.96550404	     -0.62946846	      6.67938719	     -5.18500545	     -8.35421365	    -11.56170817	      9.26845069	     -4.46921688	     -2.44667738	     -0.08103468	     -1.27234746
      0.22000000	     -5.44469719	     -2.88895617	      1.08317403	      0.09742202	      0.95567270	      1.17982341	      8.80985327	      2.17106389	     -3.44846885	    -12.38989684	      9.95680823	     -0.62432186	      6.69304425	     -5.18497589	     -8.35303118	    -11.58584009	      9.27436833	     -4.47750574	     -2.48046774	     -0.08596364	     -1.15780649
      0.23000000	     -5.44119020	     -2.89717019	      1.08423318	      0.09737517	      0.95568964	      1.17966623	      8.81643272	      2.16916419	     -3.45179078	    -12.40175814	      9.94734545	     -0.61786417	      6.70592282	     -5.18467019	     -8.34915348	    -11.60936580	      9.28100244	     -4.48527705	     -2.51576787	     -0.09142832	     -1.04152608
      0.24000000	     -5.43615769	     -2.90518931	      1.08783289	      0.09732360	      0.95570892	      1.17950061	      8.82137178	      2.16704701	     -3.45463231	    -12.41373241	      9.93632541	     -0.60974519	      6.71565993	     -5.18306025	     -8.34553187	    -11.62877291	      9.28903947	     -4.49329276	     -2.55190356	     -0.09582706	     -0.92700486
      0.25000000	     -5.42378685	     -2.91376863	      1.08453240	      0.09727388	      0.95573992	      1.17933961	      8.82547709	      2.16591236	     -3.44465980	    -12.43949985	      9.91879141	     -0.59039979	      6.70941022	     -5.18257544	     -8.36129873	    -11.63479933	      9.30521467	     -4.50928439	     -2.59265944	     -0.09934734	     -0.80207092
      0.26000000	     -5.42023070	     -2.91917057	      1.10536118	      0.09721417	      0.95575939	      1.17914084	      8.82237399	      2.15806200	     -3.45759070	    -12.43456097	      9.91491253	     -0.58544544	      6.72282609	     -5.17538158	     -8.34187696	    -11.65171938	      9.30265359	     -4.51148919	     -2.62217566	     -0.10572254	     -0.70872157
      0.27000000	     -5.41343702	     -2.92521214	      1.12756958	      0.09715702	      0.95578032	      1.17894009	      8.82272574	      2.15038818	     -3.47345376	    -12.44415279	      9.90579399	     -0.58057825	      6.72920115	     -5.16848868	     -8.32067291	    -11.66243089	      9.30385513	     -4.51486969	     -2.65066324	     -0.11136107	     -0.61468407
      0.28000000	     -5.40581801	     -2.92963124	      1.14449519	      0.09707519	      0.95580179	      1.17873436	      8.82789218	      2.14050759	     -3.49317956	    -12.45838438	      9.89604869	     -0.57434462	      6.72902295	     -5.15804958	     -8.30075715	    -11.66081096	      9.30641967	     -4.52051066	     -2.68248923	     -0.11438905	     -0.52968589
      0.29000000	     -5.39948385	     -2.93431647	      1.17258886	      0.09702158	      0.95582005	      1.17852344	      8.82954893	      2.13093076	     -3.51127598	    -12.46976132	      9.89038093	     -0.57013459	      6.72855527	     -5.14831777	     -8.28269073	    -11.65663025	      9.30575194	     -4.52498511	     -2.70229733	     -0.12060797	     -0.45896169
